<svg width="54" height="61" viewBox="0 0 54 61" fill="none" xmlns="http://www.w3.org/2000/svg">
<path d="M15.1327 0V7.56633H22.699V7.79332C9.83623 9.60924 0 20.7318 0 34.0485C0 48.6515 11.8791 60.5307 26.4822 60.5307C41.0852 60.5307 52.9643 48.6515 52.9643 34.0485C52.9643 30.6437 52.2077 27.4658 51.0728 24.5906L44.1874 27.4658C45.0197 29.66 45.398 31.7786 45.398 34.1242C45.398 44.6414 36.9994 53.04 26.4822 53.04C15.965 53.04 7.56633 44.6414 7.56633 34.1242C7.56633 23.607 15.965 15.2083 26.4822 15.2083C28.7521 15.2083 30.9463 15.5866 33.1405 16.4189L35.7131 9.30659C33.9728 8.70128 32.1569 8.39863 30.2653 8.09598V7.642H37.8317V0.0756633H15.1327V0ZM52.9643 8.77695C52.9643 8.77695 25.3472 30.0383 23.9096 31.4759C22.472 32.9892 22.472 35.1835 23.9096 36.6967C25.3472 38.21 27.6171 38.21 29.1304 36.6967C30.6437 35.1835 53.04 8.77695 53.04 8.77695H52.9643Z" fill="#149185"/>
</svg>
